<svg width="15" height="17" viewBox="0 0 15 17" fill="none" xmlns="http://www.w3.org/2000/svg">
<path d="M14.1009 6.95076C14.1009 6.46503 13.8196 6.02202 13.3752 5.80614L1.8876 0.239307C1.0196 -0.181213 0.00115846 0.436074 0.00115846 1.38393C0.00115846 1.88541 0.300905 2.33966 0.767308 2.54654L3.69302 3.84521C4.15943 4.0521 4.45917 4.50747 4.45917 5.00782V5.81176C4.45917 6.29524 4.73924 6.73713 5.18134 6.95301L5.21259 6.96875C6.21368 7.45673 6.18706 8.86222 5.16861 9.31422L0.766149 11.2673C0.299747 11.4742 0 11.9295 0 12.4299V14.8248C0 15.7716 1.01613 16.3888 1.88412 15.9706L13.3706 10.4274C13.8162 10.2126 14.0985 9.76847 14.0985 9.28161V6.95076H14.1009Z" fill="white"/>
</svg>
