<?xml version="1.0" encoding="UTF-8"?>
<svg id="Camada_2" data-name="Camada 2" xmlns="http://www.w3.org/2000/svg" xmlns:xlink="http://www.w3.org/1999/xlink" viewBox="0 0 993.67 142.3">
  <defs>
    <style>
      .cls-1 {
        fill: #dedede;
      }

      .cls-2 {
        fill: url(#Gradiente_sem_nome_14);
      }
    </style>
    <linearGradient id="Gradiente_sem_nome_14" data-name="Gradiente sem nome 14" x1="932.75" y1="142.3" x2="932.75" y2="0" gradientUnits="userSpaceOnUse">
      <stop offset="0" stop-color="#7d55b7"/>
      <stop offset="1" stop-color="#26c07c"/>
    </linearGradient>
  </defs>
  <g id="Camada_1-2" data-name="Camada 1">
    <g>
      <g>
        <path class="cls-1" d="m46.65,141.86c-8.9,0-16.45-1.4-22.65-4.19-6.19-2.79-11-6.85-14.42-12.18-3.42-5.32-5.87-11.26-7.36-17.82-1.48-6.56-2.23-14.19-2.23-22.89,0-17.79,3.55-31.62,10.65-41.49,7.1-9.87,19.36-14.8,36.78-14.8,19.36,0,31.68,3.96,36.97,11.88V.05h22.65v138.89l-17.23,1.75-2.52-11.69c-6.58,8.57-20.13,12.86-40.65,12.86Zm5.03-20.65c11.87,0,20.29-2.79,25.26-8.38,4.97-5.58,7.45-14.93,7.45-28.05s-2.39-21.88-7.16-27.08c-4.78-5.19-13.29-7.79-25.55-7.79-10.97,0-18.52,2.92-22.65,8.77-4.13,5.84-6.19,14.55-6.19,26.1s2.1,21.01,6.29,27.17c4.19,6.17,11.71,9.25,22.55,9.25Z"/>
        <path class="cls-1" d="m210.52,127.64c-8.58,9.48-22.42,14.22-41.52,14.22s-32.94-4.74-41.52-14.22c-8.58-9.48-12.87-23.7-12.87-42.66s4.29-33.18,12.87-42.66c8.58-9.48,22.42-14.22,41.52-14.22s32.94,4.74,41.52,14.22c8.58,9.48,12.87,23.7,12.87,42.66s-4.29,33.18-12.87,42.66Zm-66.01-15.19c4.84,5.98,13,8.96,24.49,8.96s19.65-3.02,24.49-9.06c4.84-6.04,7.26-14.97,7.26-26.79s-2.42-20.71-7.26-26.69c-4.84-5.97-13-8.96-24.49-8.96s-19.65,2.99-24.49,8.96c-4.84,5.97-7.26,14.87-7.26,26.69s2.42,20.91,7.26,26.88Z"/>
        <path class="cls-1" d="m231.06,141.86V34.14l17.62-1.36,1.94,9.55c5.42-8.05,18.26-12.08,38.52-12.08,18.07,0,28.91,4.29,32.52,12.86,6.06-8.57,19.74-12.86,41.04-12.86,8.13,0,14.81,1.04,20.03,3.12,5.23,2.08,9.1,5.29,11.61,9.64,2.52,4.35,4.19,8.96,5.03,13.83.84,4.87,1.26,11.14,1.26,18.8v66.23h-22.65v-61.75c0-4.02-.07-7.08-.19-9.16-.13-2.08-.58-4.48-1.35-7.21-.77-2.73-1.94-4.74-3.48-6.04-1.55-1.3-3.81-2.44-6.77-3.41-2.97-.97-6.65-1.46-11.03-1.46-11.36,0-18.87,2.4-22.55,7.21-3.68,4.81-5.52,12.14-5.52,22.01v59.8h-22.45v-61.75c0-3.9-.07-6.92-.19-9.06-.13-2.14-.61-4.58-1.45-7.31-.84-2.73-2.03-4.74-3.58-6.04-1.55-1.3-3.81-2.44-6.77-3.41-2.97-.97-6.65-1.46-11.03-1.46-11.36,0-18.84,2.4-22.45,7.21-3.61,4.81-5.42,12.14-5.42,22.01v59.8h-22.65Z"/>
        <path class="cls-1" d="m448.09,141.86c-14.84,0-25.1-2.92-30.78-8.77-5.68-5.84-8.52-14.03-8.52-24.55,0-15.32,5.06-25.81,15.2-31.46,10.13-5.65,28.61-8.47,55.46-8.47h5.42c-.26-7.01-2-11.95-5.23-14.8-3.23-2.85-9.94-4.29-20.13-4.29-10.84,0-21.29,3.05-31.36,9.16l-11.81-17.73c4.52-3.12,10.94-6.01,19.26-8.67,8.32-2.66,17.06-3.99,26.23-3.99s17.06.78,22.94,2.34c5.87,1.56,10.42,4.22,13.65,7.99,3.22,3.77,5.39,8.18,6.48,13.25,1.1,5.06,1.65,11.76,1.65,20.06v36.62c0,5.07.55,8.25,1.65,9.55,1.09,1.3,3.97,1.95,8.61,1.95v19.68c-1.03.26-4.13.39-9.29.39-5.68,0-9.94-.78-12.78-2.34-2.84-1.56-4.97-4.54-6.39-8.96-6.45,8.7-19.87,13.05-40.26,13.05Zm3.87-19.48c11.61,0,20-2.34,25.16-7.01,5.16-4.68,7.74-12.14,7.74-22.4v-5.65h-4.07c-14.2,0-24.94.65-32.23,1.95-7.29,1.3-12.2,3.25-14.71,5.84-2.52,2.6-3.77,6.5-3.77,11.69s1.58,9.25,4.74,11.79c3.16,2.53,8.87,3.8,17.13,3.8Z"/>
      </g>
      <g>
        <path class="cls-1" d="m516.71,40.96v-4.68h19.94l.77-36.23h4.26v36.23h31.55v4.68h-31.55v77.73c0,6.5,1.09,11.2,3.29,14.12,2.19,2.92,6.97,4.38,14.32,4.38h13.94v4.68h-13.94c-9.55,0-15.71-1.85-18.49-5.55-2.78-3.7-4.16-9.58-4.16-17.63V40.96h-19.94Z"/>
        <path class="cls-1" d="m628.75,141.86c-7.87,0-14.68-.91-20.42-2.73-5.74-1.82-10.36-4.22-13.84-7.21-3.48-2.99-6.26-6.92-8.32-11.79-2.07-4.87-3.45-9.9-4.16-15.1-.71-5.19-1.07-11.3-1.07-18.31,0-8.83.68-16.39,2.03-22.69,1.35-6.3,3.71-12.01,7.07-17.14,3.35-5.13,8.16-8.96,14.42-11.49,6.26-2.53,14.03-3.8,23.33-3.8,5.55,0,10.45.55,14.71,1.66,4.26,1.1,7.84,2.47,10.74,4.09,2.9,1.63,5.32,3.93,7.26,6.92,1.94,2.99,3.45,5.78,4.55,8.38,1.09,2.6,1.9,6.01,2.42,10.23.51,4.22.84,7.83.97,10.81.13,2.99.19,6.88.19,11.69h-82.65v1.36c0,8.18.55,15.07,1.65,20.65,1.09,5.59,3.1,10.78,6,15.58,2.9,4.81,7.29,8.38,13.16,10.71,5.87,2.34,13.19,3.51,21.97,3.51,8.13,0,14.61-.94,19.45-2.82,4.84-1.88,9.97-4.77,15.39-8.67l3.1,3.9c-11.36,8.18-24,12.27-37.94,12.27Zm-.97-105.58c-15.23,0-25.87,3.73-31.94,11.2-6.07,7.47-9.36,18.54-9.87,33.21h77.62c-.13-4.29-.29-7.6-.48-9.93-.19-2.34-.58-5.36-1.16-9.06-.58-3.7-1.32-6.56-2.22-8.57-.91-2.01-2.23-4.25-3.97-6.72-1.74-2.47-3.84-4.32-6.29-5.55-2.45-1.23-5.52-2.3-9.19-3.21-3.68-.91-7.84-1.36-12.49-1.36Z"/>
        <path class="cls-1" d="m723.77,141.86c-17.68,0-30.07-4.41-37.17-13.25-7.1-8.83-10.65-22.79-10.65-41.88s3.58-33.05,10.74-41.88c7.16-8.83,19.52-13.25,37.07-13.25,14.58,0,26.13,4.55,34.65,13.64l-3.48,3.31c-8.13-8.18-18.52-12.27-31.16-12.27-15.62,0-26.65,4.03-33.1,12.08-6.45,8.05-9.68,20.84-9.68,38.38s3.19,30.33,9.58,38.38c6.39,8.05,17.45,12.08,33.2,12.08,11.74,0,22.26-4.02,31.55-12.08l3.29,3.31c-10.2,8.96-21.81,13.44-34.84,13.44Z"/>
        <path class="cls-1" d="m765.51,141.86V.05h5.03v54.93c4.65-14.15,17.74-21.23,39.29-21.23,6.97,0,12.84.72,17.62,2.14,4.77,1.43,8.48,3.25,11.13,5.45,2.64,2.21,4.68,5.33,6.1,9.35,1.42,4.03,2.32,7.92,2.71,11.69.39,3.77.58,8.64.58,14.61v64.87h-5.03v-64.87c0-6.75-.29-12.08-.87-15.97-.58-3.9-1.91-7.79-3.97-11.69-2.07-3.9-5.42-6.69-10.07-8.38-4.65-1.69-10.71-2.53-18.2-2.53-8,0-14.65,1.04-19.94,3.12-5.29,2.08-9.32,5.13-12.1,9.16-2.78,4.03-4.68,8.38-5.71,13.05-1.03,4.68-1.55,10.32-1.55,16.95v61.17h-5.03Z"/>
      </g>
      <path class="cls-2" d="m993.67,60.89c0-4.32-2.43-8.26-6.27-10.18L888.14,1.2c-7.5-3.74-16.3,1.75-16.3,10.18,0,4.46,2.59,8.5,6.62,10.34l25.28,11.55c4.03,1.84,6.62,5.89,6.62,10.34v7.15c0,4.3,2.42,8.23,6.24,10.15l.27.14c8.65,4.34,8.42,16.84-.38,20.86l-38.04,17.37c-4.03,1.84-6.62,5.89-6.62,10.34v21.3c0,8.42,8.78,13.91,16.28,10.19l99.25-49.3c3.85-1.91,6.29-5.86,6.29-10.19v-20.73Z"/>
    </g>
  </g>
</svg>