<svg width="24" height="24" viewBox="0 0 24 24" fill="none" xmlns="http://www.w3.org/2000/svg">
<path d="M6.79699 21.4395H2.88199V8.83146H6.79699V21.4395ZM4.83699 7.11146C4.38649 7.11343 3.94552 6.98179 3.56984 6.73316C3.19415 6.48454 2.90062 6.13011 2.72635 5.71468C2.55209 5.29925 2.50491 4.84148 2.59078 4.39924C2.67666 3.957 2.89174 3.55015 3.20882 3.23013C3.5259 2.91012 3.93075 2.6913 4.37218 2.60135C4.81361 2.5114 5.2718 2.55436 5.68881 2.72479C6.10583 2.89522 6.46296 3.18547 6.71503 3.55885C6.9671 3.93223 7.10281 4.37196 7.10499 4.82246C7.10553 5.42608 6.86743 6.00544 6.44257 6.43422C6.01772 6.86301 5.44058 7.10645 4.83699 7.11146ZM21.451 21.4395H17.544V15.3025C17.544 13.8395 17.514 11.9635 15.508 11.9635C13.472 11.9635 13.16 13.5525 13.16 15.1965V21.4395H9.24999V8.83146H13.005V10.5545H13.06C13.4351 9.91237 13.9773 9.38397 14.6288 9.02546C15.2803 8.66695 16.0168 8.49174 16.76 8.51846C20.723 8.51846 21.451 11.1275 21.451 14.5185V21.4445V21.4395Z" fill="white"/>
</svg>
