<svg width="20" height="20" viewBox="0 0 20 20" fill="none" xmlns="http://www.w3.org/2000/svg">
<mask id="mask0_408_2377" style="mask-type:alpha" maskUnits="userSpaceOnUse" x="0" y="0" width="20" height="20">
<rect width="20" height="20" fill="#D9D9D9"/>
</mask>
<g mask="url(#mask0_408_2377)">
<path d="M4.58268 20.0834C4.34657 20.0834 4.14852 20.0034 3.98852 19.8434C3.82907 19.684 3.74935 19.4862 3.74935 19.2501C3.74935 19.014 3.82907 18.8162 3.98852 18.6568C4.14852 18.4968 4.34657 18.4168 4.58268 18.4168H8.33268V17.5834H3.33268C3.09657 17.5834 2.89879 17.5034 2.73935 17.3434C2.57935 17.184 2.49935 16.9862 2.49935 16.7501C2.49935 16.514 2.57935 16.3162 2.73935 16.1568C2.89879 15.9968 3.09657 15.9168 3.33268 15.9168H8.33268V15.0834H2.49935C2.26324 15.0834 2.06546 15.0034 1.90602 14.8434C1.74602 14.684 1.66602 14.4862 1.66602 14.2501C1.66602 14.014 1.74602 13.8162 1.90602 13.6568C2.06546 13.4968 2.26324 13.4168 2.49935 13.4168H8.33268V12.5834H3.74935C3.51324 12.5834 3.31546 12.5034 3.15602 12.3434C2.99602 12.184 2.91602 11.9862 2.91602 11.7501C2.91602 11.514 2.99602 11.3159 3.15602 11.1559C3.31546 10.9965 3.51324 10.9168 3.74935 10.9168H10.416L9.62435 9.3751C9.47157 9.08344 9.44046 8.78483 9.53102 8.47927C9.62102 8.17371 9.79796 7.9376 10.0618 7.77094C10.173 7.70149 10.2807 7.67371 10.3852 7.6876C10.4891 7.70149 10.5757 7.74316 10.6452 7.8126L15.1868 12.1459C15.3952 12.3404 15.5549 12.5695 15.666 12.8334C15.7771 13.0973 15.8327 13.3682 15.8327 13.6459V18.0001C15.8327 18.5834 15.6313 19.0765 15.2285 19.4793C14.8257 19.882 14.3327 20.0834 13.7493 20.0834H4.58268ZM9.99935 18.4168H13.3327C13.5688 18.4168 13.7666 18.3368 13.926 18.1768C14.086 18.0173 14.166 17.8195 14.166 17.5834V13.8126C14.166 13.7015 14.1452 13.594 14.1035 13.4901C14.0618 13.3857 13.9993 13.2918 13.916 13.2084L11.666 11.0834V12.5834H9.99935V18.4168ZM8.45768 7.02094L6.20768 4.64594C6.0549 4.47927 5.98213 4.27788 5.98935 4.04177C5.99602 3.80566 6.08268 3.61121 6.24935 3.45844C6.41602 3.30566 6.61407 3.2326 6.84352 3.23927C7.0724 3.24649 7.26324 3.33344 7.41602 3.5001L9.87435 6.08344C9.59657 6.15288 9.33963 6.2676 9.10352 6.4276C8.8674 6.58705 8.65213 6.78483 8.45768 7.02094ZM7.14518 9.2501L5.24935 7.27094C5.09657 7.10427 5.02379 6.90288 5.03102 6.66677C5.03768 6.43066 5.12435 6.23621 5.29102 6.08344C5.45768 5.93066 5.65546 5.8576 5.88435 5.86427C6.11379 5.87149 6.3049 5.95844 6.45768 6.1251L8.02018 7.7501C7.92296 7.98621 7.85713 8.23621 7.82268 8.5001C7.78768 8.76399 7.79102 9.01399 7.83268 9.2501H7.14518ZM16.9368 11.6876C16.8535 11.5487 16.7632 11.4168 16.666 11.2918C16.5688 11.1668 16.4577 11.0487 16.3327 10.9376L15.8327 10.4584L16.416 9.89594C16.4993 9.8126 16.5618 9.71871 16.6035 9.61427C16.6452 9.51038 16.666 9.40288 16.666 9.29177V6.20844L15.5827 7.2501L14.416 6.04177L12.8118 7.58344L11.791 6.60427C11.6799 6.49316 11.5688 6.40288 11.4577 6.33344C11.3466 6.26399 11.2285 6.20844 11.1035 6.16677L7.45768 2.29177C7.3049 2.1251 7.22852 1.92705 7.22852 1.6976C7.22852 1.46871 7.31185 1.27788 7.47852 1.1251C7.64518 0.972325 7.84657 0.899269 8.08268 0.905936C8.31879 0.913158 8.51324 1.0001 8.66602 1.16677L12.666 5.39594L13.291 4.8126L10.1243 1.5001C9.97157 1.33344 9.89852 1.13205 9.90518 0.895936C9.9124 0.659825 9.99935 0.46538 10.166 0.312602C10.3327 0.159825 10.5307 0.086769 10.7602 0.0934357C10.9891 0.100658 11.1799 0.187602 11.3327 0.354269L15.916 5.1876L16.4993 3.54177C16.6105 3.2501 16.8016 3.02788 17.0727 2.8751C17.3432 2.72232 17.6313 2.68066 17.9368 2.7501C18.0618 2.77788 18.1591 2.83344 18.2285 2.91677C18.298 3.0001 18.3327 3.11816 18.3327 3.27094V9.47927C18.3327 9.77094 18.2738 10.0487 18.156 10.3126C18.0377 10.5765 17.8743 10.8057 17.666 11.0001L16.9368 11.6876Z" fill="white"/>
</g>
</svg>
