<svg width="18" height="18" viewBox="0 0 18 18" fill="none" xmlns="http://www.w3.org/2000/svg">
<path d="M8.99935 17.3334C7.84657 17.3334 6.76324 17.1145 5.74935 16.6767C4.73546 16.2395 3.85352 15.6459 3.10352 14.8959C2.35352 14.1459 1.7599 13.264 1.32268 12.2501C0.884905 11.2362 0.666016 10.1529 0.666016 9.00008C0.666016 7.8473 0.884905 6.76397 1.32268 5.75008C1.7599 4.73619 2.35352 3.85425 3.10352 3.10425C3.85352 2.35425 4.73546 1.76036 5.74935 1.32258C6.76324 0.885359 7.84657 0.666748 8.99935 0.666748C10.1521 0.666748 11.2355 0.885359 12.2493 1.32258C13.2632 1.76036 14.1452 2.35425 14.8952 3.10425C15.6452 3.85425 16.2388 4.73619 16.676 5.75008C17.1138 6.76397 17.3327 7.8473 17.3327 9.00008C17.3327 10.1529 17.1138 11.2362 16.676 12.2501C16.2388 13.264 15.6452 14.1459 14.8952 14.8959C14.1452 15.6459 13.2632 16.2395 12.2493 16.6767C11.2355 17.1145 10.1521 17.3334 8.99935 17.3334ZM9.83268 15.6042C11.4855 15.3959 12.871 14.6701 13.9893 13.4267C15.1071 12.184 15.666 10.7084 15.666 9.00008C15.666 7.29175 15.1071 5.81591 13.9893 4.57258C12.871 3.3298 11.4855 2.60425 9.83268 2.39591V15.6042Z" fill="white"/>
</svg>
