<svg width="19" height="12" viewBox="0 0 19 12" fill="none" xmlns="http://www.w3.org/2000/svg">
<path d="M1.20907 11.8334C0.834069 11.8334 0.556291 11.7084 0.375736 11.4584C0.19518 11.2084 0.174347 10.9029 0.313236 10.5417L3.8549 1.12508C3.96601 0.861193 4.15712 0.635637 4.42824 0.448415C4.69879 0.260637 4.9799 0.166748 5.27157 0.166748C5.54935 0.166748 5.82018 0.260637 6.08407 0.448415C6.34796 0.635637 6.53546 0.861193 6.64657 1.12508L10.1674 10.5209C10.3063 10.882 10.2891 11.1912 10.1157 11.4484C9.94185 11.7051 9.65351 11.8334 9.25074 11.8334C9.09796 11.8334 8.94518 11.7812 8.7924 11.6767C8.63962 11.5729 8.53546 11.4445 8.4799 11.2917L7.6049 8.85425H2.89657L2.0424 11.2709C1.98685 11.4237 1.87935 11.5556 1.7199 11.6667C1.5599 11.7779 1.38962 11.8334 1.20907 11.8334ZM3.50074 7.16675H7.00074L5.2924 2.33341H5.20907L3.50074 7.16675ZM14.8341 9.33341C14.598 9.33341 14.4002 9.25341 14.2407 9.09341C14.0807 8.93397 14.0007 8.73619 14.0007 8.50008V6.83341H12.3341C12.098 6.83341 11.9002 6.75341 11.7407 6.59341C11.5807 6.43397 11.5007 6.23619 11.5007 6.00008C11.5007 5.76397 11.5807 5.56591 11.7407 5.40591C11.9002 5.24647 12.098 5.16675 12.3341 5.16675H14.0007V3.50008C14.0007 3.26397 14.0807 3.06591 14.2407 2.90591C14.4002 2.74647 14.598 2.66675 14.8341 2.66675C15.0702 2.66675 15.268 2.74647 15.4274 2.90591C15.5874 3.06591 15.6674 3.26397 15.6674 3.50008V5.16675H17.3341C17.5702 5.16675 17.768 5.24647 17.9274 5.40591C18.0874 5.56591 18.1674 5.76397 18.1674 6.00008C18.1674 6.23619 18.0874 6.43397 17.9274 6.59341C17.768 6.75341 17.5702 6.83341 17.3341 6.83341H15.6674V8.50008C15.6674 8.73619 15.5874 8.93397 15.4274 9.09341C15.268 9.25341 15.0702 9.33341 14.8341 9.33341Z" fill="white"/>
</svg>
