<svg width="24" height="24" viewBox="0 0 24 24" fill="none" xmlns="http://www.w3.org/2000/svg">
<path d="M20.5255 7.63232C20.5395 7.82332 20.5395 8.01332 20.5395 8.20432C20.5509 9.85114 20.235 11.4838 19.6101 13.0075C18.9851 14.5312 18.0636 15.9155 16.8991 17.08C15.7346 18.2445 14.3503 19.166 12.8267 19.7909C11.303 20.4158 9.67032 20.7318 8.0235 20.7203C5.6286 20.7264 3.28291 20.0406 1.2685 18.7453C1.62115 18.784 1.97575 18.802 2.3305 18.7993C4.31025 18.8044 6.234 18.1425 7.7915 16.9203C6.87355 16.9036 5.98374 16.6005 5.24636 16.0535C4.50898 15.5066 3.96084 14.7429 3.6785 13.8693C3.9534 13.9128 4.23119 13.9355 4.5095 13.9373C4.90027 13.9361 5.28933 13.8858 5.6675 13.7873C4.6717 13.5857 3.77634 13.0457 3.13344 12.259C2.49053 11.4723 2.1397 10.4873 2.1405 9.47132V9.41632C2.74996 9.75632 3.43113 9.94751 4.1285 9.97432C3.19533 9.35126 2.53504 8.39564 2.28231 7.30242C2.02958 6.20919 2.20347 5.06073 2.7685 4.09132C3.87353 5.45088 5.25202 6.56295 6.81455 7.35541C8.37707 8.14787 10.0887 8.60302 11.8385 8.69132C11.7679 8.35992 11.7314 8.02216 11.7295 7.68332C11.7287 6.80029 11.9936 5.93744 12.4898 5.207C12.986 4.47656 13.6905 3.91231 14.5117 3.58763C15.3329 3.26296 16.2328 3.19287 17.0943 3.3865C17.9559 3.58013 18.7392 4.02851 19.3425 4.67332C20.3277 4.4837 21.2724 4.12436 22.1345 3.61132C21.8068 4.62963 21.1183 5.4931 20.1985 6.03932C21.0721 5.93986 21.9258 5.71032 22.7315 5.35832C22.1293 6.23499 21.3835 7.00378 20.5255 7.63232Z" fill="white"/>
</svg>
