<svg width="16" height="17" viewBox="0 0 16 17" fill="none" xmlns="http://www.w3.org/2000/svg">
<mask id="mask0_260_604" style="mask-type:alpha" maskUnits="userSpaceOnUse" x="0" y="0" width="16" height="17">
<rect y="0.5" width="16" height="16" fill="#D9D9D9"/>
</mask>
<g mask="url(#mask0_260_604)">
<path d="M8.00045 10.4667C7.91156 10.4667 7.82823 10.4527 7.75045 10.4247C7.67267 10.3972 7.60045 10.3501 7.53378 10.2834L4.45045 7.20007C4.32823 7.07784 4.27 6.92495 4.27578 6.7414C4.28112 6.55829 4.34489 6.40562 4.46711 6.2834C4.58934 6.16118 4.74489 6.10007 4.93378 6.10007C5.12267 6.10007 5.27823 6.16118 5.40045 6.2834L8.00045 8.8834L10.6171 6.26673C10.7393 6.14451 10.8922 6.08607 11.0758 6.0914C11.2589 6.09718 11.4116 6.16118 11.5338 6.2834C11.656 6.40562 11.7171 6.56118 11.7171 6.75007C11.7171 6.93895 11.656 7.09451 11.5338 7.21673L8.46712 10.2834C8.40045 10.3501 8.32823 10.3972 8.25045 10.4247C8.17267 10.4527 8.08934 10.4667 8.00045 10.4667Z" fill="white"/>
</g>
</svg>
