<svg width="46" height="23" viewBox="0 0 46 23" fill="none" xmlns="http://www.w3.org/2000/svg">
<path d="M2.688 15.0484H4.896C5.312 15.0484 5.70133 15.0057 6.064 14.9204C6.42667 14.835 6.74133 14.707 7.008 14.5364C7.27467 14.355 7.48267 14.131 7.632 13.8644C7.792 13.5977 7.872 13.2777 7.872 12.9044C7.872 12.1577 7.632 11.603 7.152 11.2404C6.672 10.8777 5.968 10.6964 5.04 10.6964H2.688V15.0484ZM2.688 9.73637H5.008C5.28533 9.73637 5.55733 9.70437 5.824 9.64037C6.10133 9.5657 6.34667 9.44837 6.56 9.28837C6.784 9.12837 6.96533 8.9257 7.104 8.68037C7.24267 8.42437 7.312 8.11504 7.312 7.75237C7.312 7.63504 7.28533 7.4697 7.232 7.25637C7.18933 7.04304 7.08267 6.8297 6.912 6.61637C6.752 6.40304 6.512 6.2217 6.192 6.07237C5.872 5.91237 5.44 5.83237 4.896 5.83237H2.688V9.73637ZM1.536 4.77637H4.912C5.38133 4.77637 5.83467 4.82437 6.272 4.92037C6.70933 5.01637 7.09867 5.17637 7.44 5.40037C7.78133 5.62437 8.05333 5.9177 8.256 6.28037C8.45867 6.64304 8.56 7.09104 8.56 7.62437C8.56 8.24304 8.384 8.77637 8.032 9.22437C7.69067 9.6617 7.2 9.95504 6.56 10.1044V10.1364C7.36 10.2004 7.984 10.483 8.432 10.9844C8.89067 11.475 9.12 12.1364 9.12 12.9684C9.12 13.1497 9.072 13.4164 8.976 13.7684C8.89067 14.1204 8.704 14.4724 8.416 14.8244C8.128 15.1657 7.712 15.4644 7.168 15.7204C6.624 15.9764 5.89867 16.1044 4.992 16.1044H1.536V4.77637ZM14.0141 14.8084L16.3021 8.61637H17.5821L13.8381 18.0564C13.6141 18.6324 13.3261 19.091 12.9741 19.4324C12.6328 19.7737 12.1368 19.9444 11.4861 19.9444C11.3261 19.9444 11.1608 19.939 10.9901 19.9284C10.8301 19.9177 10.6701 19.8857 10.5101 19.8324L10.6221 18.8084C10.8461 18.9257 11.1128 18.9844 11.4221 18.9844C11.7955 18.9844 12.0888 18.867 12.3021 18.6324C12.5155 18.3977 12.7021 18.067 12.8621 17.6404L13.4061 16.2004L10.3341 8.61637H11.6621L14.0141 14.8084ZM20.8849 15.3364C20.8849 15.5604 20.8049 15.763 20.6449 15.9444C20.4849 16.115 20.2769 16.2004 20.0209 16.2004C19.7649 16.2004 19.5569 16.115 19.3969 15.9444C19.2369 15.763 19.1569 15.5604 19.1569 15.3364C19.1569 15.1124 19.2369 14.915 19.3969 14.7444C19.5569 14.563 19.7649 14.4724 20.0209 14.4724C20.2769 14.4724 20.4849 14.563 20.6449 14.7444C20.8049 14.915 20.8849 15.1124 20.8849 15.3364ZM20.8849 9.40037C20.8849 9.62437 20.8049 9.82704 20.6449 10.0084C20.4849 10.179 20.2769 10.2644 20.0209 10.2644C19.7649 10.2644 19.5569 10.179 19.3969 10.0084C19.2369 9.82704 19.1569 9.62437 19.1569 9.40037C19.1569 9.17637 19.2369 8.97904 19.3969 8.80837C19.5569 8.62704 19.7649 8.53637 20.0209 8.53637C20.2769 8.53637 20.4849 8.62704 20.6449 8.80837C20.8049 8.97904 20.8849 9.17637 20.8849 9.40037Z" fill="white"/>
<path d="M45.1009 9.95076C45.1009 9.46503 44.8196 9.02202 44.3752 8.80614L32.8876 3.23931C32.0196 2.81879 31.0012 3.43607 31.0012 4.38393C31.0012 4.88541 31.3009 5.33966 31.7673 5.54654L34.693 6.84521C35.1594 7.0521 35.4592 7.50747 35.4592 8.00782V8.81176C35.4592 9.29524 35.7392 9.73713 36.1813 9.95301L36.2126 9.96875C37.2137 10.4567 37.1871 11.8622 36.1686 12.3142L31.7661 14.2673C31.2997 14.4742 31 14.9295 31 15.4299V17.8248C31 18.7716 32.0161 19.3888 32.8841 18.9706L44.3706 13.4274C44.8162 13.2126 45.0985 12.7685 45.0985 12.2816V9.95076H45.1009Z" fill="white"/>
</svg>
