<svg width="26" height="24" viewBox="0 0 26 24" fill="none" xmlns="http://www.w3.org/2000/svg">
<path d="M24.879 6.012C24.7389 5.48449 24.4627 5.00304 24.078 4.61588C23.6933 4.22872 23.2136 3.94944 22.687 3.806C20.754 3.284 13 3.284 13 3.284C13 3.284 5.24699 3.284 3.31399 3.805C2.78726 3.94852 2.3075 4.22796 1.92279 4.6153C1.53808 5.00265 1.26192 5.4843 1.12199 6.012C0.764646 7.99376 0.591242 10.0043 0.603987 12.018C0.591242 14.0317 0.764646 16.0422 1.12199 18.024C1.26317 18.5472 1.54035 19.0236 1.92536 19.405C2.31037 19.7863 2.78948 20.0589 3.31399 20.195C5.24799 20.716 13 20.716 13 20.716C13 20.716 20.753 20.716 22.686 20.195C23.2105 20.0589 23.6896 19.7863 24.0746 19.405C24.4596 19.0236 24.7368 18.5472 24.878 18.024C25.2353 16.0422 25.4087 14.0317 25.396 12.018C25.4091 10.0043 25.236 7.99379 24.879 6.012ZM10.465 15.704V8.331L16.945 12.017L10.465 15.703V15.704Z" fill="white"/>
</svg>
